<svg width="17" height="16" viewBox="0 0 17 16" fill="none" xmlns="http://www.w3.org/2000/svg">
<path d="M5.5 8C5.5 6.34375 6.8125 5 8.5 5C10.1562 5 11.5 6.34375 11.5 8C11.5 9.65625 10.1562 11 8.5 11C6.8125 11 5.5 9.65625 5.5 8ZM16.5 8C16.5 12.4375 12.9062 16 8.5 16C4.0625 16 0.5 12.4375 0.5 8C0.5 3.59375 4.0625 0 8.5 0C12.9062 0 16.5 3.59375 16.5 8ZM8.5 1.5C4.90625 1.5 2 4.4375 2 8C2 11.5938 4.90625 14.5 8.5 14.5C12.0625 14.5 15 11.5938 15 8C15 4.4375 12.0625 1.5 8.5 1.5Z" fill="#A6A6C8"/>
</svg>
