<svg width="11" height="14" viewBox="0 0 11 14" fill="none" xmlns="http://www.w3.org/2000/svg">
<path d="M9.90625 0.09375C10.25 0.25 10.5 0.625 10.5 1V13C10.5 13.4062 10.25 13.75 9.90625 13.9375C9.75 14 9.625 14 9.5 14C9.25 14 9 13.9375 8.8125 13.6875L4.59375 9.9375H2C1.15625 9.9375 0.5 9.28125 0.5 8.46875V5.5C0.5 4.6875 1.15625 4 2 4H4.59375L8.8125 0.28125C9 0.09375 9.25 0.03125 9.5 0C9.625 0 9.75 0.03125 9.90625 0.09375ZM9 11.9062V2.125L5.1875 5.53125H2V8.5H5.1875L9 11.9062Z" fill="#A6A6C8"/>
</svg>
