<svg width="20" height="25" viewBox="0 0 20 25" fill="none" xmlns="http://www.w3.org/2000/svg">
<path d="M18.7656 9.78125L9.01562 24.0312C8.82812 24.3594 8.45312 24.5 8.125 24.5C7.9375 24.5 7.79688 24.5 7.65625 24.4062C7.14062 24.1719 6.90625 23.6562 7 23.1406L8.96875 14H2.125C1.79688 14 1.46875 13.8594 1.23438 13.625C1.04688 13.3906 0.953125 13.0625 1 12.7344L2.5 1.48438C2.54688 0.921875 3.01562 0.5 3.625 0.5H11.875C12.2031 0.5 12.5781 0.6875 12.7656 1.01562C13 1.34375 13.0469 1.71875 12.9062 2.04688L10.5156 8H17.875C18.25 8 18.6719 8.23438 18.8594 8.60938C19.0469 8.98438 19 9.45312 18.7656 9.78125ZM9.90625 12.5C10.375 12.5 10.7031 12.9688 10.6094 13.3906L8.875 21.5938L17.125 9.5H9.39062C8.875 9.5 8.5 8.98438 8.6875 8.51562L11.3125 2H3.95312L2.54688 12.5H9.90625Z" fill="#A6A6C8"/>
</svg>
