<svg width="28" height="25" viewBox="0 0 28 25" fill="none" xmlns="http://www.w3.org/2000/svg">
<path d="M16.4531 15.2188C18.9844 15.3125 20.9531 17.3281 20.9531 19.8594C20.9531 22.4375 18.8906 24.5 16.3125 24.5H4.64062C2.0625 24.5 0 22.4375 0 19.8594C0 17.8906 1.17188 16.2031 2.95312 15.5469C3.04688 13.0156 5.10938 11 7.64062 11C8.8125 11 9.89062 11.4688 10.7344 12.2656C11.3438 11.9375 11.9531 11.75 12.6094 11.75C14.5781 11.75 16.2656 13.2969 16.4531 15.2188ZM16.3125 23C18.0469 23 19.5 21.5938 19.5 19.8594C19.5 18.1719 18.0938 16.7656 16.4062 16.7188C16.2188 16.7188 16.0312 16.7188 15.8438 16.7656C15 16.9062 14.9062 16.1094 14.9531 15.9219C15 15.6406 15 15.6875 14.9531 15.4531C14.8594 14.6562 14.3906 13.8594 13.6406 13.5312C12.7969 13.1094 11.8125 13.25 11.1094 13.8125C10.7812 14.0938 10.3125 14 10.0312 13.7188C9.42188 12.9688 8.53125 12.5 7.59375 12.5C5.85938 12.5 4.45312 13.9531 4.45312 15.6875C4.45312 15.7344 4.45312 15.7812 4.45312 15.8281C4.54688 16.25 4.35938 16.625 3.9375 16.8125C2.4375 17.1406 1.40625 18.5 1.54688 20.0469C1.59375 21.7344 3.09375 23 4.78125 23H16.3125ZM26.8594 14C27.0469 14.375 27 14.8438 26.7188 15.1719C25.5469 16.625 23.9531 17.6562 22.2188 18.1719C22.0781 17.6562 21.8906 17.1875 21.6094 16.7656C22.8281 16.4375 24 15.8281 24.8906 14.9375C24.7969 14.9375 24.6562 14.9844 24.5156 14.9844C20.5781 14.9844 17.3438 11.7031 17.3438 7.76562C17.3438 5.51562 18.375 3.40625 20.1562 2.04688C20.0156 2.04688 19.875 2.04688 19.7344 2.04688C15.6094 2.04688 12.2344 5.375 12.2344 9.54688C12.2344 9.78125 12.2812 10.0625 12.2812 10.2969C11.8594 10.2969 11.4375 10.3906 11.0625 10.5312C10.9688 10.4844 10.875 10.4375 10.7812 10.4375C10.7812 10.1094 10.7344 9.82812 10.7344 9.5C10.7344 4.57812 14.7656 0.5 19.7344 0.5C20.2969 0.5 20.8125 0.59375 21.375 0.6875C21.8438 0.78125 22.2188 1.10938 22.2656 1.57812C22.3594 2.09375 22.125 2.51562 21.75 2.79688C19.9688 3.78125 18.8438 5.70312 18.8438 7.76562C18.8438 10.9062 21.4219 13.4375 24.5156 13.4375C24.8906 13.4375 25.2656 13.4375 25.6406 13.3438C25.6875 13.3438 25.7812 13.3438 25.8281 13.3438C26.2969 13.3438 26.6719 13.5781 26.8594 14Z" fill="#A6A6C8"/>
</svg>
