<svg width="24" height="25" viewBox="0 0 24 25" fill="none" xmlns="http://www.w3.org/2000/svg">
<path d="M5.25 17.75C5.625 17.75 6 18.125 6 18.5V22.25C6 22.6719 5.625 23 5.25 23C4.82812 23 4.5 22.6719 4.5 22.25V18.5C4.5 18.125 4.82812 17.75 5.25 17.75ZM14.25 17.75C14.625 17.75 15 18.125 15 18.5V22.25C15 22.6719 14.625 23 14.25 23C13.8281 23 13.5 22.6719 13.5 22.25V18.5C13.5 18.125 13.8281 17.75 14.25 17.75ZM9.75 19.25C10.125 19.25 10.5 19.625 10.5 20V23.75C10.5 24.1719 10.125 24.5 9.75 24.5C9.32812 24.5 9 24.1719 9 23.75V20C9 19.625 9.32812 19.25 9.75 19.25ZM18.75 19.25C19.125 19.25 19.5 19.625 19.5 20V23.75C19.5 24.1719 19.125 24.5 18.75 24.5C18.3281 24.5 18 24.1719 18 23.75V20C18 19.625 18.3281 19.25 18.75 19.25ZM19.4062 5.79688C21.9375 5.9375 24 8.04688 24 10.625C24 13.3438 21.7969 15.5 19.125 15.5H4.875C2.15625 15.5 0 13.3438 0 10.625C0 8.65625 1.17188 6.92188 3 6.17188C3 6.03125 3 5.89062 3 5.75C3 2.89062 5.34375 0.5 8.25 0.5C9.9375 0.5 11.5312 1.39062 12.5156 2.75C13.2188 2.28125 14.1094 2 15 2C17.2031 2 19.0781 3.64062 19.4062 5.79688ZM19.125 14C20.9531 14 22.5 12.5 22.5 10.625C22.5 8.79688 20.9531 7.25 19.125 7.25H18.75C18.3281 7.25 18 6.92188 18 6.5C18 4.85938 16.6406 3.5 15 3.5C14.1562 3.5 13.4062 3.82812 12.8438 4.4375C12.6562 4.57812 12.4219 4.67188 12.1875 4.625C11.9531 4.57812 11.7188 4.4375 11.625 4.20312C11.0156 2.89062 9.65625 2 8.25 2C6.14062 2 4.5 3.6875 4.5 5.75C4.5 6.03125 4.5 6.26562 4.54688 6.5C4.64062 6.92188 4.40625 7.29688 3.98438 7.39062C2.53125 7.76562 1.5 9.125 1.5 10.625C1.5 12.5 3 14 4.875 14H19.125Z" fill="#A6A6C8"/>
</svg>
