<svg width="30" height="21" viewBox="0 0 30 21" fill="none" xmlns="http://www.w3.org/2000/svg">
<path d="M21.75 3C24.6094 3 27 5.39062 27 8.25C27 8.76562 26.9062 9.23438 26.7656 9.70312C28.6875 10.7344 30 12.7031 30 15C30 18.3281 27.2812 21 24 21H6.75C3 21 0 18 0 14.25C0 11.3438 1.875 8.8125 4.5 7.92188C4.6875 3.51562 8.29688 0 12.75 0C15.5156 0 18 1.40625 19.5 3.51562C20.1562 3.1875 20.9062 3 21.75 3ZM20.1094 4.875C19.4531 5.20312 18.6562 4.96875 18.2344 4.40625C17.0156 2.67188 15 1.5 12.75 1.5C9.09375 1.5 6.14062 4.35938 6 7.96875C5.95312 8.57812 5.57812 9.09375 4.96875 9.32812C2.95312 10.0312 1.5 12 1.5 14.25C1.5 17.1562 3.84375 19.5 6.75 19.5H24C26.4844 19.5 28.5 17.4844 28.5 15C28.5 13.3125 27.5156 11.8125 26.0625 11.0625C25.4531 10.6875 25.125 9.98438 25.3125 9.28125C25.4062 8.95312 25.5 8.625 25.5 8.25C25.5 6.1875 23.8125 4.5 21.75 4.5C21.1406 4.5 20.625 4.64062 20.1094 4.875Z" fill="#A6A6C8"/>
</svg>
