<svg width="21" height="21" viewBox="0 0 21 21" fill="none" xmlns="http://www.w3.org/2000/svg">
<path d="M10.5 5.8125C10.5 7.59375 9.14062 9 7.5 9C5.8125 9 4.5 7.59375 4.5 5.8125C4.5 4.54688 5.95312 1.875 6.84375 0.375C6.98438 0.140625 7.21875 0 7.5 0C7.73438 0 7.96875 0.140625 8.10938 0.375C9 1.875 10.5 4.54688 10.5 5.8125ZM7.5 7.5C8.29688 7.5 9 6.75 9 5.8125C9 5.48438 8.625 4.40625 7.5 2.29688C6.32812 4.40625 6 5.48438 6 5.8125C6 6.75 6.65625 7.5 7.5 7.5ZM3 9C3.23438 9 3.46875 9.14062 3.60938 9.375C4.5 10.875 6 13.5469 6 14.8125C6 16.5938 4.64062 18 3 18C1.3125 18 0 16.5938 0 14.8125C0 13.5469 1.45312 10.875 2.34375 9.375C2.48438 9.14062 2.71875 9 3 9ZM3 16.5C3.79688 16.5 4.5 15.75 4.5 14.8125C4.5 14.4844 4.125 13.4062 3 11.2969C1.82812 13.4062 1.5 14.4844 1.5 14.8125C1.5 15.75 2.15625 16.5 3 16.5ZM15.6562 4.875C17.25 7.17188 21 12.8438 21 15.3281C21 18.4688 18.2812 21 15 21C11.6719 21 9 18.4688 9 15.3281C9 12.8438 12.7031 7.17188 14.2969 4.875C14.4375 4.64062 14.7188 4.5 15 4.5C15.2344 4.5 15.5156 4.64062 15.6562 4.875ZM15 19.5C17.4375 19.5 19.5 17.625 19.5 15.3281C19.5 14.0156 17.7188 10.5938 15 6.51562C12.2344 10.5938 10.5 14.0156 10.5 15.3281C10.5 17.625 12.5156 19.5 15 19.5Z" fill="#A6A6C8"/>
</svg>
