<svg width="30" height="21" viewBox="0 0 30 21" fill="none" xmlns="http://www.w3.org/2000/svg">
<path d="M15 0C23.25 0 30 6.75 30 15V20.25C30 20.6719 29.625 21 29.25 21C28.8281 21 28.5 20.6719 28.5 20.25V15C28.5 7.59375 22.4062 1.5 15 1.5C7.54688 1.5 1.5 7.59375 1.5 15V20.25C1.5 20.6719 1.125 21 0.75 21C0.328125 21 0 20.6719 0 20.25V15C0 6.75 6.70312 0 15 0ZM15 4.5C20.7656 4.5 25.5 9.23438 25.5 15V20.25C25.5 20.6719 25.125 21 24.75 21C24.3281 21 24 20.6719 24 20.25V15C24 10.0781 19.9219 6 15 6C10.0312 6 6 10.0781 6 15V20.25C6 20.6719 5.625 21 5.25 21C4.82812 21 4.5 20.6719 4.5 20.25V15C4.5 9.23438 9.1875 4.5 15 4.5ZM15 9C18.2812 9 21 11.7188 21 15V20.25C21 20.6719 20.625 21 20.25 21C19.8281 21 19.5 20.6719 19.5 20.25V15C19.5 12.5625 17.4375 10.5 15 10.5C12.5156 10.5 10.5 12.5625 10.5 15V20.25C10.5 20.6719 10.125 21 9.75 21C9.32812 21 9 20.6719 9 20.25V15C9 11.7188 11.6719 9 15 9Z" fill="#A6A6C8"/>
</svg>
