<svg width="29" height="25" viewBox="0 0 29 25" fill="none" xmlns="http://www.w3.org/2000/svg">
<path d="M16.6562 11.7969C17.0781 11.7031 17.4531 11.9844 17.5469 12.4062C18.0156 15.0312 18.4844 18.9688 18.0625 22.7188C17.9688 23.75 17.125 24.5 16.1406 24.5H13.375C12.8594 24.5 12.2969 24.2656 11.9688 23.7969C11.5469 23.2812 11.4062 22.5781 11.5469 21.9219C11.9219 20.0469 12.625 16.3438 12.5781 12.5469C12.5312 12.125 12.8594 11.7969 13.2812 11.75C13.7031 11.7969 14.0312 12.0781 14.0312 12.5C14.125 16.4375 13.4219 20.3281 13 22.25C12.9531 22.4844 13 22.7188 13.1406 22.8594C13.1875 22.9531 13.2812 23 13.375 23H16.1406C16.3281 23 16.5625 22.8594 16.5625 22.5312C16.9844 19.0156 16.5156 15.2188 16.0469 12.6406C16 12.2656 16.2812 11.8438 16.6562 11.7969ZM20.1719 3.26562C24.0156 3.26562 27.3438 5.51562 27.9531 8.5625C28.0469 8.98438 27.9062 9.40625 27.6719 9.6875C27.3438 10.0625 26.9219 10.25 26.4531 10.25H13.4688L7.09375 16.5781C6.8125 16.8594 6.39062 17.0469 5.96875 17.0469C5.92188 17.0469 5.875 17.0469 5.82812 17C5.40625 17 5.03125 16.7656 4.79688 16.4375C4.42188 15.9219 3.34375 12.9219 4.28125 9.82812C4.5625 8.89062 4.98438 8.04688 5.59375 7.25H2.54688C2.03125 7.25 1.60938 7.0625 1.28125 6.6875C1.04688 6.35938 0.90625 5.98438 1 5.5625C1.5625 2.60938 4.79688 0.5 8.78125 0.5C11.9219 0.5 14.7344 2 15.9531 4.25C17.2188 3.59375 18.6719 3.26562 20.1719 3.26562ZM22.75 8.75H26.4062C26.0312 6.5 23.3125 4.76562 20.1719 4.76562C18.6719 4.76562 17.2188 5.14062 16 5.9375C15.8125 6.03125 15.5781 6.07812 15.3906 6.03125C15.1562 5.9375 14.9688 5.75 14.9219 5.5625C14.1719 3.45312 11.6406 2 8.78125 2C5.54688 2 2.92188 3.64062 2.45312 5.84375L6.95312 5.75C7 5.75 7.04688 5.79688 7.09375 5.79688C7.84375 5.1875 8.6875 4.71875 9.67188 4.34375C9.76562 4.29688 9.85938 4.25 9.95312 4.25C10.2812 4.25 10.5625 4.4375 10.6094 4.76562C10.7969 5.14062 10.6094 5.5625 10.2344 5.70312C7.89062 6.64062 6.39062 8.09375 5.73438 10.0625C4.84375 12.6875 5.82812 15.3125 6.01562 15.5469L12.5781 8.98438C12.7188 8.84375 12.9062 8.75 13.1406 8.75H21.25V7.25C21.25 6.875 21.5781 6.5 22 6.5C22.375 6.5 22.75 6.875 22.75 7.25V8.75Z" fill="#A6A6C8"/>
</svg>
