<svg width="28" height="19" viewBox="0 0 28 19" fill="none" xmlns="http://www.w3.org/2000/svg">
<path d="M27.3438 17C27.7188 17.0469 28 17.4219 27.9531 17.8438C27.9062 18.2188 27.5312 18.5469 27.1094 18.4531C25.75 18.2656 24.4375 17.6562 23.5 16.6719C22.3281 17.8438 20.6875 18.5 19 18.5C17.2656 18.5 15.625 17.8438 14.4531 16.6719C13.3281 17.8438 11.6875 18.5469 10 18.5469C8.26562 18.5469 6.625 17.8438 5.45312 16.6719C4.51562 17.6562 3.25 18.2656 1.84375 18.4531C1.42188 18.5469 1.04688 18.2188 1 17.8438C0.953125 17.4219 1.23438 17.0469 1.60938 17C2.96875 16.8125 4.14062 16.1094 4.84375 15.0781C4.98438 14.8906 5.21875 14.75 5.5 14.75C5.73438 14.75 5.96875 14.8906 6.10938 15.0781C6.95312 16.2969 8.40625 17 10 17C11.5469 17 13 16.2969 13.8438 15.0781C14.125 14.7031 14.7812 14.7031 15.0625 15.0781C15.9062 16.2969 17.3594 17 18.9531 17C20.5469 17 22 16.2969 22.8438 15.0781C23.125 14.7031 23.7812 14.7031 24.0625 15.0781C24.8125 16.1094 25.9844 16.8125 27.3438 17ZM1.84375 4.20312C1.42188 4.29688 1.04688 3.96875 1 3.54688C0.953125 3.17188 1.23438 2.79688 1.60938 2.75C2.96875 2.5625 4.14062 1.85938 4.84375 0.828125C4.98438 0.640625 5.21875 0.5 5.45312 0.5C5.73438 0.5 5.96875 0.640625 6.0625 0.828125C6.90625 2.04688 8.35938 2.75 9.95312 2.75C11.5 2.75 12.9531 2.04688 13.8438 0.828125C14.125 0.453125 14.7812 0.453125 15.0625 0.828125C15.9062 2.04688 17.3594 2.75 18.9531 2.75C20.5 2.75 21.9531 2.04688 22.8438 0.828125C23.125 0.453125 23.7812 0.453125 24.0625 0.828125C24.7656 1.85938 25.9844 2.5625 27.2969 2.75C27.6719 2.79688 28 3.17188 27.9062 3.59375C27.8594 3.96875 27.5312 4.29688 27.1094 4.20312C25.7031 4.01562 24.3906 3.40625 23.4531 2.42188C22.2812 3.59375 20.6406 4.25 18.9531 4.25C17.2656 4.25 15.625 3.59375 14.5 2.42188C13.3281 3.59375 11.6875 4.25 10 4.25C8.26562 4.25 6.625 3.59375 5.45312 2.42188C4.51562 3.40625 3.25 4.01562 1.84375 4.20312ZM27.3438 9.875C27.7188 9.92188 28 10.2969 27.9062 10.7188C27.8594 11.0938 27.5312 11.4219 27.1094 11.3281C25.7031 11.1406 24.3906 10.5312 23.4531 9.54688C22.2812 10.7188 20.6406 11.375 18.9531 11.375C17.2656 11.375 15.625 10.7188 14.5 9.54688C13.3281 10.7188 11.6875 11.375 10 11.375C8.26562 11.375 6.625 10.7188 5.45312 9.54688C4.51562 10.5312 3.25 11.1406 1.84375 11.3281C1.42188 11.4219 1.04688 11.0938 1 10.6719C0.953125 10.2969 1.23438 9.92188 1.60938 9.875C2.96875 9.6875 4.14062 8.98438 4.84375 7.95312C4.98438 7.76562 5.21875 7.625 5.5 7.625C5.73438 7.625 5.96875 7.76562 6.10938 7.95312C6.95312 9.17188 8.40625 9.875 10 9.875C11.5469 9.875 13 9.17188 13.8438 7.95312C14.125 7.57812 14.7812 7.57812 15.0625 7.95312C15.9062 9.17188 17.3594 9.875 18.9531 9.875C20.5469 9.875 22 9.17188 22.8438 7.95312C23.125 7.57812 23.7812 7.57812 24.0625 7.95312C24.8125 8.98438 25.9844 9.6875 27.3438 9.875Z" fill="#A6A6C8"/>
</svg>
